%FSTAX23Y23*%
%MOIN*%
%SFA1B1*%

%IPPOS*%
%ADD18C,0.010000*%
%ADD19C,0.007870*%
%LNsignalisolator-1*%
%LPD*%
G54D18*
X0352Y0329D02*
D01*
X0352Y03288*
X0352Y03286*
X0352Y03284*
X0352Y03283*
X03521Y03281*
X03522Y03279*
X03522Y03278*
X03523Y03276*
X03524Y03275*
X03525Y03273*
X03527Y03272*
X03528Y03271*
X03529Y0327*
X03531Y03269*
X03532Y03268*
X03534Y03267*
X03535Y03266*
X03537Y03266*
X03538Y03265*
X0354Y03265*
X03542Y03265*
X03544Y03265*
X03545*
X03547Y03265*
X03549Y03265*
X03551Y03265*
X03552Y03266*
X03554Y03266*
X03555Y03267*
X03557Y03268*
X03558Y03269*
X0356Y0327*
X03561Y03271*
X03562Y03272*
X03564Y03273*
X03565Y03275*
X03566Y03276*
X03567Y03278*
X03567Y03279*
X03568Y03281*
X03569Y03283*
X03569Y03284*
X03569Y03286*
X03569Y03288*
X0357Y0329*
X03115Y0287D02*
D01*
X03115Y02868*
X03115Y02866*
X03115Y02864*
X03115Y02863*
X03116Y02861*
X03117Y02859*
X03117Y02858*
X03118Y02856*
X03119Y02855*
X0312Y02853*
X03122Y02852*
X03123Y02851*
X03124Y0285*
X03126Y02849*
X03127Y02848*
X03129Y02847*
X0313Y02846*
X03132Y02846*
X03133Y02845*
X03135Y02845*
X03137Y02845*
X03139Y02845*
X0314*
X03142Y02845*
X03144Y02845*
X03146Y02845*
X03147Y02846*
X03149Y02846*
X0315Y02847*
X03152Y02848*
X03153Y02849*
X03155Y0285*
X03156Y02851*
X03157Y02852*
X03159Y02853*
X0316Y02855*
X03161Y02856*
X03162Y02858*
X03162Y02859*
X03163Y02861*
X03164Y02863*
X03164Y02864*
X03164Y02866*
X03164Y02868*
X03165Y0287*
X035Y0329D02*
X0352D01*
X0357D02*
X0359D01*
Y0299D02*
Y0329D01*
X035Y0299D02*
X0359D01*
X035D02*
Y0329D01*
X03095Y0287D02*
X03115D01*
X03165D02*
X03185D01*
Y0257D02*
Y0287D01*
X03095Y0257D02*
X03185D01*
X03095D02*
Y0287D01*
X0274Y0249D02*
Y02549D01*
X02769*
X02779Y02539*
Y02519*
X02769Y02509*
X0274*
X02759D02*
X02779Y0249D01*
X02839Y02549D02*
X02819Y02539D01*
X02799Y02519*
Y025*
X02809Y0249*
X02829*
X02839Y025*
Y02509*
X02829Y02519*
X02799*
X03335Y03369D02*
X03354D01*
X03345*
Y0331*
X03335*
X03354*
X03424Y03359D02*
X03414Y03369D01*
X03394*
X03384Y03359*
Y03349*
X03394Y03339*
X03414*
X03424Y03329*
Y0332*
X03414Y0331*
X03394*
X03384Y0332*
X03474Y03369D02*
X03454D01*
X03444Y03359*
Y0332*
X03454Y0331*
X03474*
X03484Y0332*
Y03359*
X03474Y03369*
X03504Y0331D02*
X03524D01*
X03514*
Y03369*
X03504Y03359*
X02926Y02964D02*
X02945D01*
X02936*
Y02905*
X02926*
X02945*
X03015Y02954D02*
X03005Y02964D01*
X02985*
X02975Y02954*
Y02944*
X02985Y02934*
X03005*
X03015Y02924*
Y02915*
X03005Y02905*
X02985*
X02975Y02915*
X03065Y02964D02*
X03045D01*
X03035Y02954*
Y02915*
X03045Y02905*
X03065*
X03075Y02915*
Y02954*
X03065Y02964*
X03135Y02905D02*
X03095D01*
X03135Y02944*
Y02954*
X03125Y02964*
X03105*
X03095Y02954*
X03111Y03528D02*
Y03587D01*
X0314*
X0315Y03577*
Y03557*
X0314Y03547*
X03111*
X0313D02*
X0315Y03528D01*
X0317D02*
X0319D01*
X0318*
Y03587*
X0317Y03577*
X03476Y02913D02*
Y02972D01*
X03505*
X03515Y02962*
Y02942*
X03505Y02932*
X03476*
X03495D02*
X03515Y02913D01*
X03575Y02972D02*
X03535D01*
Y02942*
X03555Y02952*
X03565*
X03575Y02942*
Y02923*
X03565Y02913*
X03545*
X03535Y02923*
X03272Y03529D02*
Y03588D01*
X03301*
X03311Y03578*
Y03558*
X03301Y03548*
X03272*
X03291D02*
X03311Y03529D01*
X03331Y03578D02*
X03341Y03588D01*
X03361*
X03371Y03578*
Y03568*
X03361Y03558*
X03351*
X03361*
X03371Y03548*
Y03539*
X03361Y03529*
X03341*
X03331Y03539*
X02961Y03528D02*
Y03587D01*
X0299*
X03Y03577*
Y03557*
X0299Y03547*
X02961*
X0298D02*
X03Y03528D01*
X0306D02*
X0302D01*
X0306Y03567*
Y03577*
X0305Y03587*
X0303*
X0302Y03577*
X03661Y02918D02*
Y02977D01*
X0369*
X037Y02967*
Y02947*
X0369Y02937*
X03661*
X0368D02*
X037Y02918D01*
X0375D02*
Y02977D01*
X0372Y02947*
X0376*
G54D19*
X03105Y02395D02*
Y02475D01*
X02865Y02395D02*
X03105D01*
X02865D02*
Y02475D01*
X03105*
Y02435D02*
X03145D01*
X02825D02*
X02865D01*
X02835Y02565D02*
Y0339D01*
Y03465*
X02735D02*
X02835D01*
X02735Y02565D02*
Y03465D01*
Y02565D02*
X02835D01*
X03105Y03365D02*
X03185D01*
Y03125D02*
Y03365D01*
X03105Y03125D02*
X03185D01*
X03105D02*
Y03365D01*
X03145D02*
Y03405D01*
Y03085D02*
Y03125D01*
X0347Y0275D02*
X0355D01*
Y0251D02*
Y0275D01*
X0347Y0251D02*
X0355D01*
X0347D02*
Y0275D01*
X0351D02*
Y0279D01*
Y0247D02*
Y0251D01*
X03635Y03415D02*
Y03495D01*
X03395Y03415D02*
X03635D01*
X03395D02*
Y03495D01*
X03635*
Y03455D02*
X03675D01*
X03355D02*
X03395D01*
X02955Y03125D02*
X03035D01*
X02955D02*
Y03365D01*
X03035*
Y03125D02*
Y03365D01*
X02995Y03085D02*
Y03125D01*
Y03365D02*
Y03405D01*
X03655Y02755D02*
X03735D01*
Y02515D02*
Y02755D01*
X03655Y02515D02*
X03735D01*
X03655D02*
Y02755D01*
X03695D02*
Y02795D01*
Y02475D02*
Y02515D01*
M02*