%FSTAX23Y23*%
%MOIN*%
%SFA1B1*%

%IPPOS*%
%ADD10O,0.098430X0.070870*%
%ADD11R,0.140000X0.068000*%
%ADD12O,0.140000X0.068000*%
%ADD13C,0.070870*%
%ADD14R,0.070870X0.070870*%
%ADD15O,0.070870X0.098430*%
%ADD16C,0.015000*%
%ADD17C,0.020000*%
%LNsignalisolator-1*%
%LPD*%
G54D10*
X03185Y02435D03*
X02785D03*
X03715Y03455D03*
X03315D03*
G54D11*
X03395Y0324D03*
X0299Y0282D03*
G54D12*
X03395Y0314D03*
Y0304D03*
X03695Y0324D03*
Y0314D03*
Y0304D03*
X0299Y0272D03*
Y0262D03*
X0329Y0282D03*
Y0272D03*
Y0262D03*
G54D13*
X02785Y03215D03*
Y02615D03*
Y02715D03*
Y02815D03*
Y02915D03*
Y03015D03*
Y03115D03*
Y03315D03*
G54D14*
X02785Y03415D03*
G54D15*
X03145Y03445D03*
Y03045D03*
X0351Y0283D03*
Y0243D03*
X02995Y03045D03*
Y03445D03*
X03695Y02835D03*
Y02435D03*
G54D16*
X0328Y0314D02*
X03395D01*
X0286D02*
X0328D01*
X02982Y0282D02*
Y02933D01*
X03187Y02435D02*
Y0272D01*
X0322Y02878D02*
X0351D01*
Y0309*
X02732Y03468D02*
X02995D01*
X02785Y03215D02*
X0286Y0314D01*
X03695Y02435D02*
Y02525D01*
X034Y0282D02*
X03695Y02525D01*
X0329Y0282D02*
X034D01*
X02785Y02715D02*
X02877Y02622D01*
Y02566D02*
Y02622D01*
Y02566D02*
X029Y02543D01*
X03095*
X0314Y02588*
Y02673*
X03187Y0272*
X0329*
X03185Y02435D02*
X03187D01*
X03145Y03045D02*
Y031D01*
X0313Y03115D02*
X03145Y031D01*
X02885Y03115D02*
X0313D01*
X02785Y03015D02*
X02885Y03115D01*
X03315Y03455D02*
X0346D01*
X03515Y034*
Y0328D02*
Y034D01*
Y0328D02*
X03555Y0324D01*
X03695*
X02995Y03445D02*
Y03468D01*
X02732Y02668D02*
Y03468D01*
Y02668D02*
X02785Y02615D01*
X03145Y0328D02*
Y03445D01*
Y0328D02*
X03185Y0324D01*
X03395*
X03231Y03091D02*
X0328Y0314D01*
X03231Y0304D02*
Y03091D01*
X03118Y02927D02*
X03231Y0304D01*
X03118Y02723D02*
Y02927D01*
X03115Y0272D02*
X03118Y02723D01*
X0299Y0272D02*
X03115D01*
X0351Y0283D02*
Y02878D01*
X03192Y0285D02*
X0322Y02878D01*
X03192Y02761D02*
Y0285D01*
X03082Y02651D02*
X03192Y02761D01*
X03082Y0259D02*
Y02651D01*
X0306Y02568D02*
X03082Y0259D01*
X02914Y02568D02*
X0306D01*
X02902Y0258D02*
X02914Y02568D01*
X02902Y0258D02*
Y02797D01*
X02785Y02915D02*
X02902Y02797D01*
X0351Y0309D02*
X0356Y0314D01*
X03695*
X02995Y02945D02*
Y03045D01*
X02982Y02933D02*
X02995Y02945D01*
X02982Y0282D02*
X0299D01*
G54D17*
X03045Y02375D02*
X0351D01*
X02729Y02435D02*
X02785D01*
X02704Y0246D02*
X02729Y02435D01*
X02704Y0246D02*
Y0348D01*
X02739Y03515*
X03019*
X03051Y03483*
Y034D02*
Y03483D01*
X03026Y03375D02*
X03051Y034D01*
X02825Y03375D02*
X03026D01*
X02785Y03415D02*
X02825Y03375D01*
X0351Y02375D02*
Y0243D01*
X02985Y02435D02*
X03045Y02375D01*
X02785Y02435D02*
X02985D01*
X03575Y03455D02*
X03715D01*
X03515Y03515D02*
X03575Y03455D01*
X0312Y03515D02*
X03515D01*
X03089Y03484D02*
X0312Y03515D01*
X03089Y03394D02*
Y03484D01*
X0301Y03315D02*
X03089Y03394D01*
X02785Y03315D02*
X0301D01*
X03695Y0304D02*
X03775D01*
X03785Y0305*
Y0344*
X0377Y03455D02*
X03785Y0344D01*
X03715Y03455D02*
X0377D01*
X03695Y02691D02*
Y02835D01*
Y02691D02*
X03751Y02635D01*
Y02376D02*
Y02635D01*
X0372Y02345D02*
X03751Y02376D01*
X0368Y02345D02*
X0372D01*
X03639Y02386D02*
X0368Y02345D01*
X03639Y02386D02*
Y02437D01*
X03456Y0262D02*
X03639Y02437D01*
X0329Y0262D02*
X03456D01*
X03695Y02835D02*
Y0304D01*
M02*