%FSLAX25Y25*%
%MOIN*%
G70*
G01*
G75*
G04 Layer_Physical_Order=1*
G04 Layer_Color=255*
%ADD10C,0.01000*%
G36*
X449890Y278665D02*
X427371Y262304D01*
X431999Y255934D01*
X422444Y248991D01*
X417816Y255362D01*
X395211Y238939D01*
X395291Y280872D01*
X410063Y291604D01*
X449890Y278665D01*
D02*
G37*
G36*
X393702Y280923D02*
X393703Y239001D01*
X371184Y255362D01*
X366556Y248991D01*
X357001Y255934D01*
X361629Y262304D01*
X339025Y278727D01*
X378974Y291623D01*
X393702Y280923D01*
D02*
G37*
G36*
X438131Y317886D02*
X445620Y320319D01*
X449269Y309086D01*
X441781Y306653D01*
X450415Y280080D01*
X410588Y293105D01*
X404935Y310504D01*
X429530Y344358D01*
X438131Y317886D01*
D02*
G37*
G36*
X384347Y310127D02*
X378866Y293260D01*
X338618Y280181D01*
X347219Y306653D01*
X339731Y309086D01*
X343380Y320319D01*
X350869Y317886D01*
X359503Y344459D01*
X384347Y310127D01*
D02*
G37*
G36*
X400406Y345295D02*
X428346D01*
X403299Y310959D01*
X385708D01*
X360760Y345295D01*
X388595D01*
Y353169D01*
X400406D01*
Y345295D01*
D02*
G37*
D10*
X401000Y304500D02*
G03*
X394965Y307000I-6036J-6036D01*
G01*
X404000Y297257D02*
G03*
X401000Y304500I-10243J0D01*
G01*
X401642Y291142D02*
G03*
X404000Y296834I-5692J5692D01*
G01*
X394056Y288000D02*
G03*
X401642Y291142I0J10728D01*
G01*
X387985Y290515D02*
G03*
X394056Y288000I6071J6071D01*
G01*
X385000Y297722D02*
G03*
X387985Y290515I10192J0D01*
G01*
X387672Y304172D02*
G03*
X385000Y297722I6450J-6450D01*
G01*
X394500Y307000D02*
G03*
X387672Y304172I0J-9657D01*
G01*
X337000Y278500D02*
X338500Y309500D01*
X337000Y278500D02*
X355000Y256000D01*
X342500Y321500D02*
X359000Y346500D01*
X338500Y309500D02*
X342500Y321500D01*
X388500Y354500D02*
X401500Y354500D01*
X359000Y346500D02*
X388500Y354500D01*
X355000Y256000D02*
X366500Y248000D01*
X394500Y236500D01*
X422000Y247000D01*
X434000Y255500D01*
X452000Y278500D01*
X451000Y309000D02*
X452000Y278500D01*
X447000Y321500D02*
X451000Y309000D01*
X430000Y346500D02*
X447000Y321500D01*
X401500Y354500D02*
X430000Y346500D01*
M02*
