%FSLAX25Y25*%
%MOIN*%
G70*
G01*
G75*
G04 Layer_Color=16711935*
%ADD10C,0.01000*%
D10*
X401000Y304500D02*
G03*
X394965Y307000I-6036J-6036D01*
G01*
X404000Y297257D02*
G03*
X401000Y304500I-10243J0D01*
G01*
X401642Y291142D02*
G03*
X404000Y296834I-5692J5692D01*
G01*
X394056Y288000D02*
G03*
X401642Y291142I0J10728D01*
G01*
X387985Y290515D02*
G03*
X394056Y288000I6071J6071D01*
G01*
X385000Y297722D02*
G03*
X387985Y290515I10192J0D01*
G01*
X387672Y304172D02*
G03*
X385000Y297722I6450J-6450D01*
G01*
X394500Y307000D02*
G03*
X387672Y304172I0J-9657D01*
G01*
X337000Y278500D02*
X338500Y309500D01*
X337000Y278500D02*
X355000Y256000D01*
X342500Y321500D02*
X359000Y346500D01*
X338500Y309500D02*
X342500Y321500D01*
X388500Y354500D02*
X401500Y354500D01*
X359000Y346500D02*
X388500Y354500D01*
X355000Y256000D02*
X366500Y248000D01*
X394500Y236500D01*
X422000Y247000D01*
X434000Y255500D01*
X452000Y278500D01*
X451000Y309000D02*
X452000Y278500D01*
X447000Y321500D02*
X451000Y309000D01*
X430000Y346500D02*
X447000Y321500D01*
X401500Y354500D02*
X430000Y346500D01*
X401000Y304500D02*
G03*
X394965Y307000I-6036J-6036D01*
G01*
X404000Y297257D02*
G03*
X401000Y304500I-10243J0D01*
G01*
X401642Y291142D02*
G03*
X404000Y296834I-5692J5692D01*
G01*
X394056Y288000D02*
G03*
X401642Y291142I0J10728D01*
G01*
X387985Y290515D02*
G03*
X394056Y288000I6071J6071D01*
G01*
X385000Y297722D02*
G03*
X387985Y290515I10192J0D01*
G01*
X387672Y304172D02*
G03*
X385000Y297722I6450J-6450D01*
G01*
X394500Y307000D02*
G03*
X387672Y304172I0J-9657D01*
G01*
X337000Y278500D02*
X338500Y309500D01*
X337000Y278500D02*
X355000Y256000D01*
X342500Y321500D02*
X359000Y346500D01*
X338500Y309500D02*
X342500Y321500D01*
X388500Y354500D02*
X401500Y354500D01*
X359000Y346500D02*
X388500Y354500D01*
X355000Y256000D02*
X366500Y248000D01*
X394500Y236500D01*
X422000Y247000D01*
X434000Y255500D01*
X452000Y278500D01*
X451000Y309000D02*
X452000Y278500D01*
X447000Y321500D02*
X451000Y309000D01*
X430000Y346500D02*
X447000Y321500D01*
X401500Y354500D02*
X430000Y346500D01*
M02*
