  0
SECTION
  2
HEADER
  9
$ACADVER
  1
AC1009
  9
$FILLMODE
 70
0
  9
$EXTMIN
 10
-188.1939
 20
-46.6939
 30
0.0000
  9
$EXTMAX
 10
182.6939
 20
72.6939
 30
0.0000
  0
ENDSEC
  0
SECTION
  2
TABLES
  0
TABLE
  2
LTYPE
 70
1
  0
LTYPE
  2
CONTINUOUS
 70
64
  3
Solid line
 72
65
 73
0
 40
0
  0
ENDTAB
  0
TABLE
  2
LAYER
 70
255
  0
LAYER
  2
1
 70
64
 62
14
  6
CONTINUOUS
  0
LAYER
  2
16
 70
64
 62
174
  6
CONTINUOUS
  0
LAYER
  2
17
 70
64
 62
94
  6
CONTINUOUS
  0
LAYER
  2
18
 70
64
 62
94
  6
CONTINUOUS
  0
LAYER
  2
19
 70
64
 62
54
  6
CONTINUOUS
  0
LAYER
  2
21
 70
64
 62
251
  6
CONTINUOUS
  0
LAYER
  2
22
 70
64
 62
251
  6
CONTINUOUS
  0
LAYER
  2
23
 70
64
 62
178
  6
CONTINUOUS
  0
LAYER
  2
24
 70
64
 62
178
  6
CONTINUOUS
  0
LAYER
  2
25
 70
64
 62
251
  6
CONTINUOUS
  0
LAYER
  2
26
 70
64
 62
251
  6
CONTINUOUS
  0
LAYER
  2
27
 70
64
 62
251
  6
CONTINUOUS
  0
LAYER
  2
28
 70
64
 62
251
  6
CONTINUOUS
  0
LAYER
  2
39
 70
64
 62
14
  6
CONTINUOUS
  0
LAYER
  2
40
 70
64
 62
174
  6
CONTINUOUS
  0
LAYER
  2
41
 70
64
 62
14
  6
CONTINUOUS
  0
LAYER
  2
42
 70
64
 62
174
  6
CONTINUOUS
  0
LAYER
  2
43
 70
64
 62
94
  6
CONTINUOUS
  0
LAYER
  2
45
 70
64
 62
251
  6
CONTINUOUS
  0
LAYER
  2
48
 70
64
 62
251
  6
CONTINUOUS
  0
LAYER
  2
49
 70
64
 62
251
  6
CONTINUOUS
  0
LAYER
  2
51
 70
64
 62
251
  6
CONTINUOUS
  0
LAYER
  2
52
 70
64
 62
251
  6
CONTINUOUS
  0
ENDTAB
  0
ENDSEC
  0
SECTION
  2
BLOCKS
  0
BLOCK
  8
0
  2
RECT
 70
64
 10
0.0000
 20
0.0000
 30
0.0000
  3
RECT
  0
SOLID
  8
0
 10
-0.5000
 20
-0.5000
 30
0.0000
 11
0.5000
 21
-0.5000
 31
0.0000
 12
-0.5000
 22
0.5000
 32
0.0000
 13
0.5000
 23
0.5000
 33
0.0000
  0
ENDBLK
  8
0
  0
BLOCK
  8
0
  2
PIE
 70
64
 10
0.0000
 20
0.0000
 30
0.0000
  3
PIE
  0
CIRCLE
  8
0
 10
0.0000
 20
0.0000
 30
0.0000
 40
0.5000
  0
ENDBLK
  8
0
  0
BLOCK
  8
0
  2
OCTAGONP
 70
64
 10
0.0000
 20
0.0000
 30
0.0000
  3
OCTAGONP
  0
POLYLINE
  8
0
 66
1
 10
0.0000
 20
0.0000
 30
0.0000
 40
0.0000
 41
0.0000
 70
1
  0
VERTEX
  8
0
 10
-0.5000
 20
-0.2071
 30
0.0000
  0
VERTEX
  8
0
 10
-0.5000
 20
0.2071
 30
0.0000
  0
VERTEX
  8
0
 10
-0.2071
 20
0.5000
 30
0.0000
  0
VERTEX
  8
0
 10
0.2071
 20
0.5000
 30
0.0000
  0
VERTEX
  8
0
 10
0.5000
 20
0.2071
 30
0.0000
  0
VERTEX
  8
0
 10
0.5000
 20
-0.2071
 30
0.0000
  0
VERTEX
  8
0
 10
0.2071
 20
-0.5000
 30
0.0000
  0
VERTEX
  8
0
 10
-0.2071
 20
-0.5000
 30
0.0000
  0
SEQEND
  8
0
  0
ENDBLK
  8
0
  0
BLOCK
  8
0
  2
SQUAREP
 70
64
 10
0.0000
 20
0.0000
 30
0.0000
  3
SQUAREP
  0
SOLID
  8
0
 10
-0.5000
 20
-0.5000
 30
0.0000
 11
0.5000
 21
-0.5000
 31
0.0000
 12
-0.5000
 22
0.5000
 32
0.0000
 13
0.5000
 23
0.5000
 33
0.0000
  0
ENDBLK
  8
0
  0
BLOCK
  8
0
  2
ROUNDP
 70
64
 10
0.0000
 20
0.0000
 30
0.0000
  3
ROUNDP
  0
CIRCLE
  8
0
 10
0.0000
 20
0.0000
 30
0.0000
 40
0.5000
  0
ENDBLK
  8
0
  0
BLOCK
  8
0
  2
ANNULUSP
 70
64
 10
0.0000
 20
0.0000
 30
0.0000
  3
ANNULUSP
  0
CIRCLE
  8
0
 10
0.0000
 20
0.0000
 30
0.0000
 40
0.5000
  0
ENDBLK
  8
0
  0
BLOCK
  8
0
  2
THERMALP
 70
64
 10
0.0000
 20
0.0000
 30
0.0000
  3
THERMALP
  0
LINE
  8
0
 10
-0.2379
 20
0.4500
 30
0.0000
 11
0.2379
 21
0.4500
 31
0.0000
  0
LINE
  8
0
 10
0.4500
 20
0.2379
 30
0.0000
 11
0.4500
 21
-0.2379
 31
0.0000
  0
LINE
  8
0
 10
0.2379
 20
-0.4500
 30
0.0000
 11
-0.2379
 21
-0.4500
 31
0.0000
  0
LINE
  8
0
 10
-0.4500
 20
-0.2379
 30
0.0000
 11
-0.4500
 21
0.2379
 31
0.0000
  0
ENDBLK
  8
0
  0
BLOCK
  8
0
  2
OCTAGONV
 70
64
 10
0.0000
 20
0.0000
 30
0.0000
  3
OCTAGONV
  0
POLYLINE
  8
0
 66
1
 10
0.0000
 20
0.0000
 30
0.0000
 40
0.0000
 41
0.0000
 70
1
  0
VERTEX
  8
0
 10
-0.5000
 20
-0.2071
 30
0.0000
  0
VERTEX
  8
0
 10
-0.5000
 20
0.2071
 30
0.0000
  0
VERTEX
  8
0
 10
-0.2071
 20
0.5000
 30
0.0000
  0
VERTEX
  8
0
 10
0.2071
 20
0.5000
 30
0.0000
  0
VERTEX
  8
0
 10
0.5000
 20
0.2071
 30
0.0000
  0
VERTEX
  8
0
 10
0.5000
 20
-0.2071
 30
0.0000
  0
VERTEX
  8
0
 10
0.2071
 20
-0.5000
 30
0.0000
  0
VERTEX
  8
0
 10
-0.2071
 20
-0.5000
 30
0.0000
  0
SEQEND
  8
0
  0
ENDBLK
  8
0
  0
BLOCK
  8
0
  2
SQUAREV
 70
64
 10
0.0000
 20
0.0000
 30
0.0000
  3
SQUAREV
  0
SOLID
  8
0
 10
-0.5000
 20
-0.5000
 30
0.0000
 11
0.5000
 21
-0.5000
 31
0.0000
 12
-0.5000
 22
0.5000
 32
0.0000
 13
0.5000
 23
0.5000
 33
0.0000
  0
ENDBLK
  8
0
  0
BLOCK
  8
0
  2
ROUNDV
 70
64
 10
0.0000
 20
0.0000
 30
0.0000
  3
ROUNDV
  0
CIRCLE
  8
0
 10
0.0000
 20
0.0000
 30
0.0000
 40
0.5000
  0
ENDBLK
  8
0
  0
BLOCK
  8
0
  2
ANNULUSV
 70
64
 10
0.0000
 20
0.0000
 30
0.0000
  3
ANNULUSV
  0
CIRCLE
  8
0
 10
0.0000
 20
0.0000
 30
0.0000
 40
0.5000
  0
ENDBLK
  8
0
  0
BLOCK
  8
0
  2
THERMALV
 70
64
 10
0.0000
 20
0.0000
 30
0.0000
  3
THERMALV
  0
LINE
  8
0
 10
-0.2379
 20
0.4500
 30
0.0000
 11
0.2379
 21
0.4500
 31
0.0000
  0
LINE
  8
0
 10
0.4500
 20
0.2379
 30
0.0000
 11
0.4500
 21
-0.2379
 31
0.0000
  0
LINE
  8
0
 10
0.2379
 20
-0.4500
 30
0.0000
 11
-0.2379
 21
-0.4500
 31
0.0000
  0
LINE
  8
0
 10
-0.4500
 20
-0.2379
 30
0.0000
 11
-0.4500
 21
0.2379
 31
0.0000
  0
ENDBLK
  8
0
  0
ENDSEC
  0
SECTION
  2
ENTITIES
  0
CIRCLE
  8
16
 10
15.5000
 20
13.5000
 30
0.0000
 40
1.5000
  0
CIRCLE
  8
16
 10
86.5000
 20
13.5000
 30
0.0000
 40
1.5000
  0
CIRCLE
  8
16
 10
35.5000
 20
-2.5000
 30
0.0000
 40
3.5000
  0
CIRCLE
  8
16
 10
66.5000
 20
-2.5000
 30
0.0000
 40
6.0000
  0
LINE
  8
16
 10
122.7365
 20
48.7782
 30
0.0000
 11
159.1525
 21
12.3622
 31
0.0000
  0
LINE
  8
16
 10
159.1525
 20
12.3622
 30
0.0000
 11
163.3952
 21
16.6048
 31
0.0000
  0
LINE
  8
16
 10
163.3952
 20
16.6048
 30
0.0000
 11
126.9792
 21
53.0208
 31
0.0000
  0
LINE
  8
16
 10
126.9792
 20
53.0208
 30
0.0000
 11
122.7365
 21
48.7782
 31
0.0000
  0
LINE
  8
16
 10
90.5000
 20
-18.5000
 30
0.0000
 11
90.5000
 21
-12.5000
 31
0.0000
  0
LINE
  8
16
 10
11.5000
 20
45.0000
 30
0.0000
 11
90.5000
 21
45.0000
 31
0.0000
  0
LINE
  8
16
 10
90.5000
 20
45.0000
 30
0.0000
 11
90.5000
 21
39.0000
 31
0.0000
  0
LINE
  8
16
 10
96.5000
 20
39.0000
 30
0.0000
 11
96.5000
 21
-12.5000
 31
0.0000
  0
LINE
  8
16
 10
90.5000
 20
39.0000
 30
0.0000
 11
96.5000
 21
39.0000
 31
0.0000
  0
LINE
  8
16
 10
90.5000
 20
-12.5000
 30
0.0000
 11
96.5000
 21
-12.5000
 31
0.0000
  0
LINE
  8
16
 10
90.5000
 20
-18.5000
 30
0.0000
 11
11.5000
 21
-18.5000
 31
0.0000
  0
LINE
  8
16
 10
11.5000
 20
-18.5000
 30
0.0000
 11
11.5000
 21
-12.5000
 31
0.0000
  0
LINE
  8
16
 10
5.5000
 20
39.0000
 30
0.0000
 11
5.5000
 21
-12.5000
 31
0.0000
  0
LINE
  8
16
 10
11.5000
 20
-12.5000
 30
0.0000
 11
5.5000
 21
-12.5000
 31
0.0000
  0
LINE
  8
16
 10
11.5000
 20
45.0000
 30
0.0000
 11
11.5000
 21
39.0000
 31
0.0000
  0
LINE
  8
16
 10
11.5000
 20
39.0000
 30
0.0000
 11
5.5000
 21
39.0000
 31
0.0000
  0
LINE
  8
16
 10
116.0000
 20
39.0000
 30
0.0000
 11
116.0000
 21
-12.5000
 31
0.0000
  0
LINE
  8
16
 10
116.0000
 20
-12.5000
 30
0.0000
 11
122.0000
 21
-12.5000
 31
0.0000
  0
LINE
  8
16
 10
122.0000
 20
-12.5000
 30
0.0000
 11
122.0000
 21
39.0000
 31
0.0000
  0
LINE
  8
16
 10
122.0000
 20
39.0000
 30
0.0000
 11
116.0000
 21
39.0000
 31
0.0000
  0
LINE
  8
16
 10
18.0000
 20
15.0000
 30
0.0000
 11
84.0000
 21
15.0000
 31
0.0000
  0
LINE
  8
16
 10
84.0000
 20
15.0000
 30
0.0000
 11
84.0000
 21
12.0000
 31
0.0000
  0
LINE
  8
16
 10
84.0000
 20
12.0000
 30
0.0000
 11
18.0000
 21
12.0000
 31
0.0000
  0
LINE
  8
16
 10
18.0000
 20
12.0000
 30
0.0000
 11
18.0000
 21
15.0000
 31
0.0000
  0
LINE
  8
16
 10
110.0000
 20
-19.0000
 30
0.0000
 11
110.0000
 21
45.0000
 31
0.0000
  0
LINE
  8
16
 10
110.0000
 20
45.0000
 30
0.0000
 11
126.5000
 21
61.5000
 31
0.0000
  0
LINE
  8
16
 10
126.5000
 20
61.5000
 30
0.0000
 11
171.5000
 21
16.5000
 31
0.0000
  0
LINE
  8
16
 10
171.5000
 20
16.5000
 30
0.0000
 11
123.0000
 21
-32.0000
 31
0.0000
  0
LINE
  8
16
 10
110.0000
 20
-19.0000
 30
0.0000
 11
123.0000
 21
-32.0000
 31
0.0000
  0
LINE
  8
16
 10
-121.5000
 20
-13.0000
 30
0.0000
 11
-121.5000
 21
38.5000
 31
0.0000
  0
LINE
  8
16
 10
-121.5000
 20
38.5000
 30
0.0000
 11
-127.5000
 21
38.5000
 31
0.0000
  0
LINE
  8
16
 10
-127.5000
 20
38.5000
 30
0.0000
 11
-127.5000
 21
-13.0000
 31
0.0000
  0
LINE
  8
16
 10
-127.5000
 20
-13.0000
 30
0.0000
 11
-121.5000
 21
-13.0000
 31
0.0000
  0
LINE
  8
16
 10
-19.0000
 20
-18.5000
 30
0.0000
 11
-19.0000
 21
-12.5000
 31
0.0000
  0
LINE
  8
16
 10
-98.0000
 20
45.0000
 30
0.0000
 11
-19.0000
 21
45.0000
 31
0.0000
  0
LINE
  8
16
 10
-19.0000
 20
45.0000
 30
0.0000
 11
-19.0000
 21
39.0000
 31
0.0000
  0
LINE
  8
16
 10
-13.0000
 20
39.0000
 30
0.0000
 11
-13.0000
 21
-12.5000
 31
0.0000
  0
LINE
  8
16
 10
-19.0000
 20
39.0000
 30
0.0000
 11
-13.0000
 21
39.0000
 31
0.0000
  0
LINE
  8
16
 10
-19.0000
 20
-12.5000
 30
0.0000
 11
-13.0000
 21
-12.5000
 31
0.0000
  0
LINE
  8
16
 10
-19.0000
 20
-18.5000
 30
0.0000
 11
-98.0000
 21
-18.5000
 31
0.0000
  0
LINE
  8
16
 10
-98.0000
 20
-18.5000
 30
0.0000
 11
-98.0000
 21
-12.5000
 31
0.0000
  0
LINE
  8
16
 10
-104.0000
 20
39.0000
 30
0.0000
 11
-104.0000
 21
-12.5000
 31
0.0000
  0
LINE
  8
16
 10
-98.0000
 20
-12.5000
 30
0.0000
 11
-104.0000
 21
-12.5000
 31
0.0000
  0
LINE
  8
16
 10
-98.0000
 20
45.0000
 30
0.0000
 11
-98.0000
 21
39.0000
 31
0.0000
  0
LINE
  8
16
 10
-98.0000
 20
39.0000
 30
0.0000
 11
-104.0000
 21
39.0000
 31
0.0000
  0
LINE
  8
16
 10
-115.5000
 20
45.0000
 30
0.0000
 11
-115.5000
 21
-19.0000
 31
0.0000
  0
LINE
  8
16
 10
-115.5000
 20
-19.0000
 30
0.0000
 11
-132.0000
 21
-35.5000
 31
0.0000
  0
LINE
  8
16
 10
-132.0000
 20
-35.5000
 30
0.0000
 11
-177.0000
 21
9.5000
 31
0.0000
  0
LINE
  8
16
 10
-177.0000
 20
9.5000
 30
0.0000
 11
-128.5000
 21
58.0000
 31
0.0000
  0
LINE
  8
16
 10
-115.5000
 20
45.0000
 30
0.0000
 11
-128.5000
 21
58.0000
 31
0.0000
  0
LINE
  8
16
 10
-128.2365
 20
-22.7782
 30
0.0000
 11
-164.6525
 21
13.6378
 31
0.0000
  0
LINE
  8
16
 10
-164.6525
 20
13.6378
 30
0.0000
 11
-168.8952
 21
9.3952
 31
0.0000
  0
LINE
  8
16
 10
-168.8952
 20
9.3952
 30
0.0000
 11
-132.4792
 21
-27.0208
 31
0.0000
  0
LINE
  8
16
 10
-132.4792
 20
-27.0208
 30
0.0000
 11
-128.2365
 21
-22.7782
 31
0.0000
  0
ENDSEC
  0
EOF
