%FSLAX25Y25*%
%MOIN*%
G70*
G01*
G75*
%ADD10C,0.01000*%
%ADD11R,0.09843X0.07087*%
%ADD12O,0.09843X0.07087*%
%ADD13C,0.06000*%
%ADD14C,0.00787*%
%ADD15R,0.10642X0.07887*%
%ADD16O,0.10642X0.07887*%
%ADD17C,0.06800*%
%ADD18C,0.00500*%
D10*
X415500Y420000D02*
X431000Y407000D01*
X371000D02*
X385500Y420000D01*
X371000Y297000D02*
X431000D01*
Y407000D01*
X371000Y297000D02*
Y407000D01*
X385500Y420000D02*
X415500D01*
D18*
X412532Y326500D02*
X416468D01*
X414500Y324532D02*
Y328468D01*
X412532Y336500D02*
X416468D01*
X414500Y334531D02*
Y338469D01*
X412532Y346500D02*
X416468D01*
X414500Y344531D02*
Y348468D01*
X412532Y356500D02*
X416468D01*
X414500Y354532D02*
Y358469D01*
X412532Y366500D02*
X416468D01*
X414500Y364531D02*
Y368468D01*
X412532Y376500D02*
X416468D01*
X414500Y374532D02*
Y378468D01*
X412532Y386500D02*
X416468D01*
X414500Y384531D02*
Y388469D01*
X412532Y396500D02*
X416468D01*
X414500Y394531D02*
Y398468D01*
X382531Y326500D02*
X386469D01*
X384500Y324532D02*
Y328468D01*
X382531Y336500D02*
X386469D01*
X384500Y334531D02*
Y338469D01*
X382531Y346500D02*
X386469D01*
X384500Y344531D02*
Y348468D01*
X382531Y356500D02*
X386469D01*
X384500Y354532D02*
Y358469D01*
X382531Y366500D02*
X386469D01*
X384500Y364531D02*
Y368468D01*
X382531Y376500D02*
X386469D01*
X384500Y374532D02*
Y378468D01*
X382531Y386500D02*
X386469D01*
X384500Y384531D02*
Y388469D01*
X382531Y396500D02*
X386469D01*
X384500Y394531D02*
Y398468D01*
X406032Y314000D02*
X409969D01*
X408000Y312032D02*
Y315968D01*
X393032Y314000D02*
X396969D01*
X395000Y312032D02*
Y315968D01*
X417031Y305000D02*
X420968D01*
X419000Y303031D02*
Y306968D01*
X377031Y305000D02*
X380968D01*
X379000Y303031D02*
Y306968D01*
M02*
