%FSLAX25Y25*%
%MOIN*%
G70*
G01*
G75*
G04 Layer_Color=2752767*
%ADD10C,0.01000*%
%ADD11R,0.09843X0.07087*%
%ADD12O,0.09843X0.07087*%
%ADD13C,0.06000*%
%ADD14C,0.00787*%
%ADD15R,0.10642X0.07887*%
%ADD16O,0.10642X0.07887*%
%ADD17C,0.06800*%
%ADD18C,0.00500*%
D10*
X415500Y420000D02*
X431000Y407000D01*
X371000D02*
X385500Y420000D01*
X371000Y297000D02*
X431000D01*
Y407000D01*
X371000Y297000D02*
Y407000D01*
X385500Y420000D02*
X415500D01*
D18*
X412500Y324500D02*
Y328500D01*
X416500D01*
Y324500D01*
X412500D01*
Y334500D02*
Y338500D01*
X416500D01*
Y334500D01*
X412500D01*
Y344500D02*
Y348500D01*
X416500D01*
Y344500D01*
X412500D01*
Y354500D02*
Y358500D01*
X416500D01*
Y354500D01*
X412500D01*
Y364500D02*
Y368500D01*
X416500D01*
Y364500D01*
X412500D01*
Y374500D02*
Y378500D01*
X416500D01*
Y374500D01*
X412500D01*
Y384500D02*
Y388500D01*
X416500D01*
Y384500D01*
X412500D01*
Y394500D02*
Y398500D01*
X416500D01*
Y394500D01*
X412500D01*
X382500Y324500D02*
Y328500D01*
X386500D01*
Y324500D01*
X382500D01*
Y334500D02*
Y338500D01*
X386500D01*
Y334500D01*
X382500D01*
Y344500D02*
Y348500D01*
X386500D01*
Y344500D01*
X382500D01*
Y354500D02*
Y358500D01*
X386500D01*
Y354500D01*
X382500D01*
Y364500D02*
Y368500D01*
X386500D01*
Y364500D01*
X382500D01*
Y374500D02*
Y378500D01*
X386500D01*
Y374500D01*
X382500D01*
Y384500D02*
Y388500D01*
X386500D01*
Y384500D01*
X382500D01*
Y394500D02*
Y398500D01*
X386500D01*
Y394500D01*
X382500D01*
X406000Y312000D02*
Y316000D01*
X410000D01*
Y312000D01*
X406000D01*
X393000D02*
Y316000D01*
X397000D01*
Y312000D01*
X393000D01*
X417000Y303000D02*
Y307000D01*
X421000D01*
Y303000D01*
X417000D01*
X377000D02*
Y307000D01*
X381000D01*
Y303000D01*
X377000D01*
M02*
