%FSLAX25Y25*%
%MOIN*%
G70*
G01*
G75*
G04 Layer_Physical_Order=1*
G04 Layer_Color=255*
%ADD10C,0.01000*%
%ADD11R,0.09843X0.07087*%
%ADD12O,0.09843X0.07087*%
%ADD13C,0.06000*%
D10*
X378000Y305000D02*
Y387300D01*
X378100Y396500D02*
X384500D01*
X378100Y387400D02*
Y396500D01*
X378000Y387300D02*
X378100Y387400D01*
X378000Y305000D02*
X379000D01*
X404000D02*
X419000D01*
X399500Y309500D02*
X404000Y305000D01*
X399500Y309500D02*
Y392000D01*
X404000Y396500D01*
X414500D01*
X415500Y420000D02*
X431000Y407000D01*
X371000D02*
X385500Y420000D01*
X371000Y297000D02*
X431000D01*
Y407000D01*
X371000Y297000D02*
Y407000D01*
X385500Y420000D02*
X415500D01*
D11*
X414500Y326500D02*
D03*
D12*
Y336500D02*
D03*
Y346500D02*
D03*
Y356500D02*
D03*
Y366500D02*
D03*
Y376500D02*
D03*
Y386500D02*
D03*
Y396500D02*
D03*
X384500Y326500D02*
D03*
Y336500D02*
D03*
Y346500D02*
D03*
Y356500D02*
D03*
Y366500D02*
D03*
Y376500D02*
D03*
Y386500D02*
D03*
Y396500D02*
D03*
X419000Y305000D02*
D03*
X379000D02*
D03*
D13*
X408000Y314000D02*
D03*
X395000D02*
D03*
M02*
